# xmcd CD database file
#
# Track frame offsets:
#	150
#	26641
#	47869
#	73043
#	100874
#	122357
#	146362
#	168047
#	196407
#
# Disc length: 2939 seconds
#
# Revision: 0
# Processed by: cddbd v1.5.2PL0 Copyright (c) Steve Scherf et al.
# Submitted via: CDex 1.51
#
DISCID=730b7909
DTITLE=David Arkenstone - Myths And Legends CD1
DYEAR=2007
DGENRE=New Age
TTITLE0=Tree Of Life
TTITLE1=Legend Of Bell Rock
TTITLE2=Song Of Sheherazade
TTITLE3=Daughter Of The Sun
TTITLE4=Oceanus
TTITLE5=Across The River
TTITLE6=The Wolf's Head
TTITLE7=Temple Of Isis
TTITLE8=El Dorado
EXTD=YEAR: 2007
EXTT0=
EXTT1=
EXTT2=
EXTT3=
EXTT4=
EXTT5=
EXTT6=
EXTT7=
EXTT8=
PLAYORDER=
